<svg
  xmlns="http://www.w3.org/2000/svg"
  xmlns:xlink="http://www.w3.org/1999/xlink"
  width="35px" height="35px" viewBox="0 0 53 53">
  <defs>
    <linearGradient id="PSgrad_0" x1="0%" x2="70.711%" y1="0%" y2="70.711%">
      <stop offset="0%" stop-color="rgb(155,155,155)" stop-opacity="1" />
      <stop offset="0%" stop-color="rgb(113,230,35)" stop-opacity="1" />
      <stop offset="100%" stop-color="rgb(96,96,96)" stop-opacity="1" />
    </linearGradient>

  </defs>
  <path fill-rule="evenodd"  fill="rgb(255, 255, 255)"
        d="M11.078,6.078 L41.922,6.078 C44.683,6.078 46.922,8.317 46.922,11.078 L46.922,41.922 C46.922,44.683 44.683,46.922 41.922,46.922 L11.078,46.922 C8.317,46.922 6.078,44.683 6.078,41.922 L6.078,11.078 C6.078,8.317 8.317,6.078 11.078,6.078 Z"/>
  <path  stroke-linecap="butt" stroke-linejoin="miter" stroke-width="3px" stroke="rgb(0, 0, 0)" fill="url(#PSgrad_0)"
        d="M11.078,6.078 L41.922,6.078 C44.683,6.078 46.922,8.317 46.922,11.078 L46.922,41.922 C46.922,44.683 44.683,46.922 41.922,46.922 L11.078,46.922 C8.317,46.922 6.078,44.683 6.078,41.922 L6.078,11.078 C6.078,8.317 8.317,6.078 11.078,6.078 Z"/>
  <path fill-rule="evenodd"  fill="rgb(255, 255, 255)"
        d="M35.854,27.277 C36.662,26.469 36.662,25.163 35.845,24.355 L24.158,12.668 C23.359,11.860 22.052,11.860 21.245,12.668 L19.311,14.627 C18.503,15.427 18.503,16.733 19.311,17.541 L27.595,25.825 L19.311,34.109 C18.503,34.909 18.503,36.215 19.311,37.023 L21.253,38.965 C22.052,39.773 23.359,39.773 24.166,38.965 L35.854,27.277 Z"/>
</svg>