<svg
  xmlns="http://www.w3.org/2000/svg"
  xmlns:xlink="http://www.w3.org/1999/xlink"
  width="41.5px" height="41.5px">
  <defs>
    <linearGradient id="PSgrad_0" x1="50%" x2="0%" y1="86.603%" y2="0%">
      <stop offset="0%" stop-color="rgb(135,135,135)" stop-opacity="1" />
      <stop offset="100%" stop-color="rgb(255,255,255)" stop-opacity="1" />
    </linearGradient>

  </defs>
  <path fill-rule="evenodd"  fill="rgb(255, 255, 255)"
        d="M24.026,3.238 L37.742,16.955 C39.695,18.907 39.695,22.073 37.742,24.026 L24.026,37.742 C22.073,39.695 18.907,39.695 16.955,37.742 L3.238,24.026 C1.285,22.073 1.285,18.907 3.238,16.955 L16.955,3.238 C18.907,1.285 22.073,1.285 24.026,3.238 Z"/>
  <path stroke="rgb(0, 0, 0)" stroke-width="1px" stroke-linecap="butt" stroke-linejoin="miter" fill="url(#PSgrad_0)"
        d="M24.026,3.238 L37.742,16.955 C39.695,18.907 39.695,22.073 37.742,24.026 L24.026,37.742 C22.073,39.695 18.907,39.695 16.955,37.742 L3.238,24.026 C1.285,22.073 1.285,18.907 3.238,16.955 L16.955,3.238 C18.907,1.285 22.073,1.285 24.026,3.238 Z"/>
  <path fill-rule="evenodd"  fill="rgb(0, 0, 0)"
        d="M26.551,15.623 C26.012,15.454 25.514,15.369 25.057,15.369 C24.676,15.369 24.401,15.481 24.231,15.707 C24.061,15.933 23.976,16.221 23.976,16.573 L23.976,17.188 L26.296,17.188 L26.296,19.201 L23.976,19.201 L23.976,27.014 L21.295,27.014 L21.295,19.201 L19.819,19.201 L19.819,17.909 L21.295,17.188 L21.295,16.467 C21.295,15.348 21.571,14.531 22.121,14.015 C22.672,13.500 23.554,13.242 24.767,13.242 C25.693,13.242 26.516,13.379 27.237,13.655 L26.551,15.623 ZM16.716,15.966 C15.744,15.966 15.257,15.527 15.257,14.648 C15.257,13.775 15.744,13.338 16.716,13.338 C17.689,13.338 18.175,13.775 18.175,14.648 C18.175,15.064 18.054,15.388 17.810,15.619 C17.567,15.851 17.202,15.966 16.716,15.966 ZM18.052,27.014 L15.371,27.014 L15.371,17.188 L18.052,17.188 L18.052,27.014 Z"/>
</svg>